<?xml version="1.0" encoding="UTF-8" standalone="no"?>
<!DOCTYPE svg PUBLIC "-//W3C//DTD SVG 1.1//EN" "http://www.w3.org/Graphics/SVG/1.1/DTD/svg11.dtd">
<svg width="100%" height="100%" viewBox="0 0 147 293" version="1.1" xmlns="http://www.w3.org/2000/svg" xmlns:xlink="http://www.w3.org/1999/xlink" xml:space="preserve" xmlns:serif="http://www.serif.com/" style="fill-rule:evenodd;clip-rule:evenodd;stroke-linejoin:round;stroke-miterlimit:2;">
    <g transform="matrix(1,0,0,1,-347.727,-151.417)">
        <g>
            <g transform="matrix(1,0,0,1,-68.6468,47.8427)">
                <path d="M537.47,282.37L537.47,297.44L537.73,321.82" style="fill-rule:nonzero;stroke:white;stroke-width:1px;"/>
            </g>
            <g transform="matrix(1,0,0,1,210.876,-9.28197)">
                <path d="M281.62,237.92C276.78,261.7 258.77,273.7 253.62,277.6C245.576,283.646 236.354,287.941 226.55,290.21L226.55,377.43C219.16,390.76 212.63,401.5 207.7,409.32C203.59,415.85 201.3,419.22 197.12,422.74C194.21,425.18 184.9,432.79 171.61,432.37C168.61,432.28 154.38,431.83 148.55,421.6C147.96,420.55 144.69,414.81 146.85,408.18C149.69,399.5 159.29,397.18 159.85,397.03C159.25,397.31 149.99,401.66 149.08,410.45C148.08,420.21 158.28,426.36 159.85,427.27C170.91,433.65 186.66,429.4 195.38,419.9C201.1,413.67 203.13,406.46 203.13,402.9L203.13,289.2C201.379,288.611 199.674,287.892 198.03,287.05C192.29,284.05 187.359,279.706 183.66,274.39C189.364,279.223 195.987,282.853 203.13,285.06L203.13,210.13C208.969,197.73 221.063,189.398 234.73,188.36C232.423,189.111 230.396,190.544 228.92,192.47C227.521,194.321 226.684,196.536 226.51,198.85L226.51,286.12C234.416,284.66 241.72,280.907 247.51,275.33C257.4,265.56 258.98,253.2 259.79,246.04C262.41,222.92 255.6,182.55 222.09,170.22C204.03,163.57 180.53,166.51 164.4,179.85C151,191 140.23,206.69 144.24,231.16C146.15,241.08 152.24,251.16 168.99,254.16C180.33,256.23 189.6,250.27 192.84,247.87C178.58,258.7 161.05,259.71 150.05,252.13C140.05,245.22 137.62,233.24 137.43,228.84C136.88,215.56 139.32,207.02 141.43,201.84C144.123,195.37 147.837,189.373 152.43,184.08C172.02,161.82 204.82,161.26 208.37,161.21C213.9,161.14 250.06,160.66 270.54,189.21C274,194.1 286.65,213.21 281.62,237.92Z" style="fill-rule:nonzero;stroke:white;stroke-width:1px;"/>
            </g>
            <g transform="matrix(1.31645,0,0,1.31645,-225.241,-59.1831)">
                <path d="M507.6,359.81C509.572,358.697 510.913,356.723 511.22,354.48C511.372,352.654 510.8,350.84 509.63,349.43C511.453,349.575 513.271,349.072 514.76,348.01C516.526,346.663 517.572,344.571 517.59,342.35C515.699,341.23 513.39,341.053 511.35,341.87C509.66,342.639 508.353,344.062 507.73,345.81C506.937,343.551 504.979,341.891 502.62,341.48C501.026,341.229 499.393,341.536 498,342.35C497.962,343.984 498.461,345.587 499.42,346.91C501.69,349.8 505.42,349.49 505.75,349.47C504.382,350.865 503.697,352.795 503.88,354.74C504.217,356.934 505.608,358.83 507.6,359.81Z" style="fill-rule:nonzero;stroke:white;stroke-width:0.76px;"/>
            </g>
            <g transform="matrix(1,0,0,1,-68.6468,47.8427)">
                <path d="M541,364C540.61,367.33 539.26,370.1 537.36,370.21C535.36,370.3 533.8,367.53 533.36,363.9C534.57,360.83 536.19,358.02 537.36,354.9C538.71,357.92 539.68,361 541,364Z" style="fill-rule:nonzero;stroke:white;stroke-width:1px;"/>
            </g>
            <g transform="matrix(1,0,0,1,-68.6468,47.8427)">
                <path d="M542.38,328.7C542,339.7 541.49,351.18 541.11,362.13C541.11,362.75 541.11,363.37 541,363.97C539.68,360.97 538.71,357.92 537.38,354.97C536.19,358.05 534.57,360.86 533.38,363.97C533.33,363.66 533.31,363.35 533.29,363.04L531.82,328.81L531.82,328.75L531.96,328.64C534.045,327.855 536.262,327.478 538.49,327.53C539.374,327.558 540.255,327.665 541.12,327.85L541.46,328.07L541.71,328.25C541.859,328.353 542.002,328.463 542.14,328.58L542.38,328.7Z" style="fill-rule:nonzero;stroke:white;stroke-width:1px;stroke-linejoin:miter;stroke-miterlimit:4;"/>
            </g>
            <g transform="matrix(1,0,0,1,-68.6468,47.8427)">
                <path d="M537.27,223.81C531.18,223.81 526.27,229.13 523.79,239.11C524.343,259.457 524.887,279.807 525.42,300.16L525.42,300.62C527.533,309.953 529.647,319.287 531.76,328.62C533.873,337.953 531.76,328.62 531.76,328.67L531.9,328.56C533.245,327.403 534.922,326.703 536.69,326.56C536.976,326.545 537.264,326.545 537.55,326.56L537.85,326.56C537.985,326.569 538.118,326.59 538.25,326.62L538.6,326.69L538.98,326.78L539.52,326.95C539.73,327.03 539.94,327.11 540.13,327.2L540.54,327.4L541.02,327.66L541.36,327.88L541.61,328.06C541.759,328.163 541.902,328.273 542.04,328.39C542.108,328.434 542.171,328.485 542.23,328.54C542.23,328.42 542.23,328.29 542.31,328.17C542.39,328.05 542.31,328.03 542.31,327.96C544.31,318.78 546.16,309.37 548.13,300.18L548.13,299.71C548.78,279.28 549.32,259.31 549.97,238.88C548.14,230.26 542.75,223.81 537.27,223.81ZM534,248.35C534.791,247.253 536,246.529 537.34,246.35C537.436,246.34 537.534,246.34 537.63,246.35C542.43,246.56 546.22,257.93 545.97,267.5C545.73,276 542.26,286.25 537.63,286.63C537.55,286.64 537.47,286.64 537.39,286.63C532.59,286.63 528.85,276.04 528.72,267.14C528.6,260 530.85,252 534,248.35Z" style="fill-rule:nonzero;stroke:white;stroke-width:1px;stroke-linejoin:miter;stroke-miterlimit:4;"/>
            </g>
            <g transform="matrix(1,0,0,1,-68.6468,47.8427)">
                <path d="M540.67,273.83C540.02,275.45 539.14,276.77 538.12,277.2C538.069,277.226 538.015,277.246 537.96,277.26C537.866,277.292 537.768,277.315 537.67,277.33C537.508,277.36 537.342,277.36 537.18,277.33C537.058,277.318 536.937,277.295 536.82,277.26C536.683,277.215 536.55,277.162 536.42,277.1C534.91,276.3 534.17,274.1 534.07,273.83C534.07,265.33 534.037,256.837 533.97,248.35C534.761,247.253 535.97,246.529 537.31,246.35C538.585,246.428 539.766,247.052 540.55,248.06C540.61,256.77 540.62,265.14 540.67,273.83Z" style="fill-rule:nonzero;stroke:white;stroke-width:1px;"/>
            </g>
            <g transform="matrix(1,0,0,1,-68.6468,47.8427)">
                <path d="M538.76,281.32C538.62,281.51 538.02,282.18 537.45,282.18C536.88,282.18 536.34,281.54 536.16,281.32C536.16,279.85 536.24,278.55 536.27,277.1C536.4,277.162 536.533,277.215 536.67,277.26C536.787,277.295 536.908,277.318 537.03,277.33C537.192,277.36 537.358,277.36 537.52,277.33C537.618,277.315 537.716,277.292 537.81,277.26C537.865,277.246 537.919,277.226 537.97,277.2C538.254,277.145 538.52,277.018 538.74,276.83C538.71,278.45 538.79,279.72 538.76,281.32Z" style="fill-rule:nonzero;stroke:white;stroke-width:1px;"/>
            </g>
            <g transform="matrix(1,0,0,1,-68.6468,47.8427)">
                <path d="M537.34,355.19L537.34,370.59L537.6,395.52" style="fill-rule:nonzero;stroke:white;stroke-width:1px;"/>
            </g>
        </g>
    </g>
</svg>
