<svg id="Capa_1" data-name="Capa 1" xmlns="http://www.w3.org/2000/svg" viewBox="0 0 841.89 595.28"><defs><style>.cls-1,.cls-3,.cls-5{fill:none;stroke:#1d1d1b;}.cls-1{stroke-linecap:round;}.cls-1,.cls-3,.cls-4,.cls-5{stroke-miterlimit:10;}.cls-2,.cls-4{fill:#1d1d1b;}.cls-4{stroke:#000;}.cls-5{stroke-width:0.75px;}</style></defs><polyline class="cls-1" points="537.47 282.37 537.47 297.44 537.73 321.82"/><path class="cls-2" d="M281.62,237.92c-4.84,23.78-22.85,35.78-28,39.68a72.12,72.12,0,0,1-27.07,12.61v87.22c-7.39,13.33-13.92,24.07-18.85,31.89-4.11,6.53-6.4,9.9-10.58,13.42-2.91,2.44-12.22,10.05-25.51,9.63-3-.09-17.23-.54-23.06-10.77-.59-1.05-3.86-6.79-1.7-13.42,2.84-8.68,12.44-11,13-11.15-.6.28-9.86,4.63-10.77,13.42-1,9.76,9.2,15.91,10.77,16.82,11.06,6.38,26.81,2.13,35.53-7.37,5.72-6.23,7.75-13.44,7.75-17V289.2a37.18,37.18,0,0,1-5.1-2.15,40.18,40.18,0,0,1-14.37-12.66,55.42,55.42,0,0,0,19.47,10.67V210.13a38.12,38.12,0,0,1,31.6-21.77,12,12,0,0,0-5.81,4.11,12.09,12.09,0,0,0-2.41,6.38v87.27a41,41,0,0,0,21-10.79c9.89-9.77,11.47-22.13,12.28-29.29,2.62-23.12-4.19-63.49-37.7-75.82-18.06-6.65-41.56-3.71-57.69,9.63C151,191,140.23,206.69,144.24,231.16c1.91,9.92,8,20,24.75,23,11.34,2.07,20.61-3.89,23.85-6.29-14.26,10.83-31.79,11.84-42.79,4.26-10-6.91-12.43-18.89-12.62-23.29-.55-13.28,1.89-21.82,4-27a65.48,65.48,0,0,1,11-17.76c19.59-22.26,52.39-22.82,55.94-22.87,5.53-.07,41.69-.55,62.17,28C274,194.1,286.65,213.21,281.62,237.92Z"/><path class="cls-2" d="M341.21,347.92c-1.86-.06-3-.09-4.13-.85-2-1.38-2.2-4.26-2.24-5.16V255A25.35,25.35,0,0,1,338.25,243a44.94,44.94,0,0,1-16.07-8.54,47.22,47.22,0,0,1-10.77-12.87,57.88,57.88,0,0,1-7.09,9.95c-5.59,6.32-9.35,7.71-12.75,13.34a29,29,0,0,0-3.77,11,25.58,25.58,0,0,1,7-11.55,23.44,23.44,0,0,1,7.45-4.7,34.06,34.06,0,0,1,9.87,6,35.3,35.3,0,0,1,7.45,9.11v23.48a57.37,57.37,0,0,0-31.42,17.84c-3.82,4.3-11.51,13-12.92,26.3-1.17,11.05,2.55,19.82,4.67,24.79a59.3,59.3,0,0,0,11.22,17.28,35.86,35.86,0,0,1,15.08-13.06c4.39-2,10.52-2.61,13.42-2.81,3.77,5.95,5.43,11.89,9.2,17.84a21.94,21.94,0,0,1,5.38-11.74c4.74-5,11.84-6.53,11.67-7C345.8,347.38,344.09,348,341.21,347.92Zm-21.85-9.18c-1,1.19-6.06,4.1-10.55,4.1-5.68,0-10.83-2.18-13.18-5.71a29.14,29.14,0,0,1-4.95-18.1c.54-8.92,3-13.4,7.81-18,3.49-3.31,11-7.51,20.87-9.49Z"/><path class="cls-2" d="M389,344.58c-4.8,3.17-8.66,6-11.53,8.29-2.5,1.95-4,3.27-5.38,5.46a17.28,17.28,0,0,0-2.46,8.09L360,349.19V238.65c-4.4-.12-9.82.94-16.16,5.19,3.06-9.37,8.18-12.68,11.53-13.94a9.44,9.44,0,0,1,4.63-.53V200.91a66,66,0,0,0,19.46-17.63c-.91,1.53-1.88,3.6-2.78,5.53-1.36,2.9-2.17,8.62-2.22,12.1v32.41a32,32,0,0,0,4.63.26,27.76,27.76,0,0,0,14.93-4.8c-3,6.54-6.41,13.28-12.38,13.84a19.14,19.14,0,0,1-7.18-.76v96.89a9.74,9.74,0,0,0,4.91,6.59A9.51,9.51,0,0,0,389,344.58Z"/><path class="cls-2" d="M398.43,239a38.4,38.4,0,0,0,11.15-8,37.41,37.41,0,0,0,6.14-8.45,28.15,28.15,0,0,1,5.86,7.06,27.75,27.75,0,0,1,3.68,11.7c5.39-6.62,10.76-12,16.15-18.66,2.93,5.6,7.13,13.2,10.06,18.8-3,4.86-6.71,10.2-9.67,15.06a11.29,11.29,0,0,0-3.59-6.22,9,9,0,0,0-6.4-2.3c-3.44.32-7.37,3.73-7.49,7.69,0,25.1-.68,52.69-.68,77.82,0,1.81,1,4.42,2.46,7.06a26.61,26.61,0,0,0,3.38,4.87,25.83,25.83,0,0,0-8.05,6.94,32.61,32.61,0,0,0-5.91,13.91,30.54,30.54,0,0,0-6.47-13.93,30.93,30.93,0,0,0-8.18-6.92,20.27,20.27,0,0,0,4.35-4.92c1.73-2.75,2.74-5.31,2.74-7,0-25.06.2-54.74.2-79.89,0-.48.24-5.85-1.56-8.68A17.89,17.89,0,0,0,398.43,239Z"/><path class="cls-2" d="M455.83,238.2A35.81,35.81,0,0,0,467,230.59a56.07,56.07,0,0,0,6.14-8.45l8.1,16.06s.15,11.36,0,15.32c0,25.1-.2,54.43-.2,79.57,0,1.81,1,4.41,2.45,7.06a26.61,26.61,0,0,0,3.38,4.87,25.83,25.83,0,0,0-8.05,6.94,32.72,32.72,0,0,0-5.91,13.9A30.35,30.35,0,0,0,458.28,345a20.26,20.26,0,0,0,4.34-4.92c1.73-2.75,2.74-5.32,2.74-7,0-25.07.23-56,.23-81.15,0-.48.33-5.38-1.46-8.21A16,16,0,0,0,455.83,238.2Z"/><path class="cls-2" d="M619.65,344.85a58.92,58.92,0,0,0-11.07,9.33c-2.3,2.6-9.52,12.15-9.52,12.15s-4.39-12.53-7.6-18.48c0-26.33.7-66.17.34-92.58a8.79,8.79,0,0,0-1.5-5,18.42,18.42,0,0,0-4.16-4,16.3,16.3,0,0,0-6.93-2.52c0,3.57.07,8.84,0,11.34,0,25.29-.22,53-.22,78.34,0,1.82.25,32.93.25,32.93s-8-9.73-12.1-13.55c-2-1.86-8.85-6-11.09-7.36a20.59,20.59,0,0,0,4.37-5c1.75-2.78,2.77-5.36,2.77-7.06,0-25.26.23-56.43.23-81.76,0-.48.33-5.43-1.48-8.29a14.54,14.54,0,0,0-8.35-5.18,39.18,39.18,0,0,0,11.23-8,56.85,56.85,0,0,0,6.18-8.51l8.22,16.13A23.81,23.81,0,0,0,590,233c2.48-2,9.32-10.86,9.32-10.86l8.34,16.06s-.09,12.74-.21,16.9c0,26.38-.2,57.21-.2,83.64a7.62,7.62,0,0,0,4.06,6.11C614.34,346.44,616.76,346.91,619.65,344.85Z"/><path class="cls-2" d="M641.54,261.24l-1,1.5,1.29.39c7.32,2.42,13.34,5.59,16,8.31a24.68,24.68,0,0,1,7.36,14.68c1.23,7.23,1.12,7.93,1.12,19.1,0,10.52.29,21.37,4.11,27.77a20.55,20.55,0,0,0,13.44,9.95c2.37.55,7.27,1.61,11.37-.67,6.75-3.76,5-14.34,5-14.83.7,1.52,2.47,6.22,1,10.87a16.76,16.76,0,0,1-9.5,10.29,26.29,26.29,0,0,1-12.44,1.28A28.33,28.33,0,0,1,660.78,340c-4.75-6.2-5.39-19.75-5.85-23.69-.89-7.88-.51-11.37-.68-17.46-.23-8-1.22-12.61-4.61-17-1.2-1.56-5.52-5.05-11.4-6.14l-2-.38v57.58c0,3.11,1.44,4.74,2.8,6.54,1,1.35,4.06,2.41,5,3.21-4.52,2.46-7.57,5.62-10.69,9.1a43.05,43.05,0,0,0-9.06,14.9V202.38c0-2.58.29-6.58-1.86-10.95a18.57,18.57,0,0,0-5.78-6.8,58.7,58.7,0,0,0,12.48-9.83c4.3-4.44,5.21-8.85,7.13-12.29l0,85.48c5.12-7.8,12.27-15.6,17.4-23.4,1.26-1.92,6.05-8.69,6.43-12.92.33-3.42-1.22-8.71-1.3-9,.38.16,5,3.55,10.81,2.15A59.1,59.1,0,0,0,683,199.76"/><path class="cls-2" d="M473.27,195.77a3.86,3.86,0,0,0-3.79,2.71,4.82,4.82,0,0,0,1.55,5,5.23,5.23,0,0,0-5-1.38,3.36,3.36,0,0,0-2.48,3.72,3.68,3.68,0,0,0,2.46,3.14c2.57.73,4.86-1.3,5-1.46a4.34,4.34,0,0,0-1.57,4.79,4,4,0,0,0,3.9,2.85,4.34,4.34,0,0,0,2-7.64,5.29,5.29,0,0,0,5.52,1.25,3.57,3.57,0,0,0,2-3.44,3.29,3.29,0,0,0-2.17-3.32c-2.62-.73-5.23,1.39-5.33,1.49a4.35,4.35,0,0,0,1.53-4.71A4.08,4.08,0,0,0,473.27,195.77Z"/><circle class="cls-3" cx="473.2" cy="205.43" r="10.15"/><path class="cls-2" d="M536.69,195.77a3.84,3.84,0,0,0-3.78,2.71,4.82,4.82,0,0,0,1.54,5,5.21,5.21,0,0,0-5-1.38,3.36,3.36,0,0,0-2.49,3.72,3.68,3.68,0,0,0,2.46,3.14c2.58.73,4.86-1.3,5-1.46a4.33,4.33,0,0,0-1.58,4.79,4,4,0,0,0,3.91,2.85,4.35,4.35,0,0,0,2-7.64,5.27,5.27,0,0,0,5.51,1.25,3.57,3.57,0,0,0,2-3.44,3.31,3.31,0,0,0-2.18-3.32c-2.61-.73-5.23,1.39-5.32,1.49a4.36,4.36,0,0,0,1.52-4.71A4.07,4.07,0,0,0,536.69,195.77Z"/><circle class="cls-3" cx="536.63" cy="205.43" r="10.15"/><path class="cls-2" d="M507.6,359.81a7.25,7.25,0,0,0,3.62-5.33,7,7,0,0,0-1.59-5.05,7.78,7.78,0,0,0,5.13-1.42,7.19,7.19,0,0,0,2.83-5.66,7.08,7.08,0,0,0-6.24-.48,6.86,6.86,0,0,0-3.62,3.94,6.62,6.62,0,0,0-5.11-4.33,7,7,0,0,0-4.62.87,7.47,7.47,0,0,0,1.42,4.56c2.27,2.89,6,2.58,6.33,2.56a6.64,6.64,0,0,0-1.87,5.27A6.8,6.8,0,0,0,507.6,359.81Z"/><path class="cls-3" d="M541,364v0c-.39,3.33-1.74,6.1-3.64,6.21h0c-2,.09-3.56-2.68-4-6.31,1.21-3.07,2.83-5.88,4-9C538.71,357.92,539.68,361,541,364Z"/><path class="cls-4" d="M542.38,328.7c-.38,11-.89,22.48-1.27,33.43,0,.62,0,1.24-.11,1.84-1.32-3-2.29-6.05-3.62-9-1.19,3.08-2.81,5.89-4,9-.05-.31-.07-.62-.09-.93l-1.47-34.23s0,0,0-.06l.14-.11a17.38,17.38,0,0,1,6.53-1.11,14.9,14.9,0,0,1,2.63.32h0l.34.22h0l0,0,.25.18a5.36,5.36,0,0,1,.43.33Z"/><path class="cls-4" d="M537.27,223.81c-6.09,0-11,5.32-13.48,15.3q.83,30.52,1.63,61.05c0,.15,0,.31,0,.46q3.17,14,6.34,28s0,0,0,.05l.14-.11a8.38,8.38,0,0,1,4.79-2,8.16,8.16,0,0,1,.86,0l.3,0a2.57,2.57,0,0,1,.4.06l.35.07.38.09.54.17c.21.08.42.16.61.25l.41.2.48.26,0,0h0l.34.22h0l0,0,.25.18a5.36,5.36,0,0,1,.43.33,1.39,1.39,0,0,1,.19.15c0-.12,0-.25.08-.37s0-.14,0-.21c2-9.18,3.85-18.59,5.82-27.78,0-.16,0-.31,0-.47.65-20.43,1.19-40.4,1.84-60.83C548.14,230.26,542.75,223.81,537.27,223.81ZM534,248.35a4.92,4.92,0,0,1,3.34-2,1.42,1.42,0,0,1,.29,0c4.8.21,8.59,11.58,8.34,21.15-.24,8.5-3.71,18.75-8.34,19.13a1,1,0,0,1-.24,0c-4.8,0-8.54-10.59-8.67-19.49C528.6,260,530.85,252,534,248.35Z"/><path class="cls-2" d="M540.67,273.83c-.65,1.62-1.53,2.94-2.55,3.37a.76.76,0,0,1-.16.06,1.74,1.74,0,0,1-.29.07,1.35,1.35,0,0,1-.49,0,1.91,1.91,0,0,1-.36-.07,3.31,3.31,0,0,1-.4-.16c-1.51-.8-2.25-3-2.35-3.27q0-12.75-.1-25.48a4.92,4.92,0,0,1,3.34-2,4.45,4.45,0,0,1,3.24,1.71C540.61,256.77,540.62,265.14,540.67,273.83Z"/><path class="cls-5" d="M538.76,281.32c-.14.19-.74.86-1.31.86s-1.11-.64-1.29-.86c0-1.47.08-2.77.11-4.22a3.31,3.31,0,0,0,.4.16,1.91,1.91,0,0,0,.36.07,1.35,1.35,0,0,0,.49,0,1.74,1.74,0,0,0,.29-.07.76.76,0,0,0,.16-.06,1.68,1.68,0,0,0,.77-.37C538.71,278.45,538.79,279.72,538.76,281.32Z"/><polyline class="cls-1" points="537.34 355.19 537.34 370.59 537.6 395.52"/></svg>